<?xml version="1.0" encoding="UTF-8" standalone="no"?>
<!-- Created with Inkscape (http://www.inkscape.org/) -->

<svg
  width="128mm"
  height="128mm"
  viewBox="0 0 128 128"
  xmlns="http://www.w3.org/2000/svg">
  <path
    id="path1"
    fill="#43abd6"
    style="display:inline;fill:#43abd6;fill-opacity:1;"
    d="m 75.90894,13.128721 a 7.185379,7.185379 0 0 0 -6.83178,7.179566 L 69.098316,45.09 a 19.455454,19.455454 0 0 0 -5.063467,-0.676469 19.455454,19.455454 0 0 0 -19.455611,19.455611 19.455454,19.455454 0 0 0 19.455611,19.455093 19.455454,19.455454 0 0 0 19.41278,-18.86325 7.1846605,7.1846605 0 0 0 0.01548,-0.217236 19.455454,19.455454 0 0 0 0.02683,-0.374607 19.455454,19.455454 0 0 0 -0.0062,-0.260066 l -0.02218,-24.916393 c 2.774897,1.849026 5.77984,3.542373 9.317327,4.886997 a 7.1846605,7.1846605 0 0 0 9.267294,-4.164603 7.1846605,7.1846605 0 0 0 -4.163056,-9.267274 C 89.097888,26.808469 86.146276,23.756512 82.642163,16.996624 A 7.185379,7.185379 0 0 0 77.721112,13.269589 7.185379,7.185379 0 0 0 75.90894,13.128721 Z" />
  <path
    id="path2"
    fill="#178dd2"
    d="m 50.095748,15.381558 a 7.1846605,7.1846605 0 0 0 -2.776571,0.3839 C 26.960149,22.825275 13.081046,42.090884 13.057591,63.861401 a 7.185379,7.185379 0 0 0 0,0.0078 c 1.32e-4,28.068628 22.908628,50.977119 50.97726,50.977259 10.288424,8e-5 19.876766,-3.0873 27.904522,-8.36894 0.963329,1.211 2.029446,2.28 3.167179,3.18421 3.596537,2.8584 7.566818,4.17088 11.076358,4.98658 3.8652,0.89872 7.72711,-1.50672 8.62539,-5.37203 0.89873,-3.86519 -1.50621,-7.7271 -5.37152,-8.62537 -2.42185,-0.5629 -4.24359,-1.325773 -5.39061,-2.237364 -0.51256,-0.407369 -0.95505,-0.835499 -1.34262,-1.414343 7.65975,-8.923531 12.30849,-20.499829 12.30856,-33.130002 a 7.1846605,7.1846605 0 0 0 -7.18473,-7.184728 7.1846605,7.1846605 0 0 0 -7.18472,7.184728 c -8e-5,20.303093 -16.304715,36.608469 -36.607809,36.608329 -20.300378,-9e-5 -36.604158,-16.301212 -36.608333,-36.600589 v -0.0041 -0.0036 c 0.02009,-15.683916 9.962406,-29.452101 24.600085,-34.52794 a 7.1846605,7.1846605 0 0 0 4.434466,-9.141378 7.1846605,7.1846605 0 0 0 -6.365321,-4.818365 z" />
</svg>