<svg xmlns="http://www.w3.org/2000/svg" height="100%" width="100%" viewBox="0 0 512 512" fill="none">  <!--!
  Font Awesome Pro 6.4.0 by @fontawesome - https://fontawesome.com License -
  https://fontawesome.com/license (Commercial License) Copyright 2023 Fonticons, Inc. -->
  <path d="m 256,174 a 32,32 0 0 0 -32,32 v 100 a 32,32 0 0 0 32,32 32,32 0 0 0 32,-32 V 206 A 32,32 0 0 0 256,174 Z M 0,224 c 0,17.7 14.3,32 32,32 17.7,0 32,-14.3 32,-32 0,-53 43,-96 96,-96 h 160 v 32 c 0,12.9 7.8,24.6 19.8,29.6 12,5 25.7,2.2 34.9,-6.9 l 64,-64 c 12.5,-12.5 12.5,-32.8 0,-45.3 l -64,-64 C 365.5,0.2 351.8,-2.5 339.8,2.5 327.8,7.5 320,19.1 320,32 V 64 H 160 C 71.6,64 0,135.6 0,224 Z m 512,64 c 0,-17.7 -14.3,-32 -32,-32 -17.7,0 -32,14.3 -32,32 0,53 -43,96 -96,96 H 192 v -32 c 0,-12.9 -7.8,-24.6 -19.8,-29.6 -12,-5 -25.7,-2.2 -34.9,6.9 l -64,64 c -12.5,12.5 -12.5,32.8 0,45.3 l 64,64 c 9.2,9.2 22.9,11.9 34.9,6.9 12,-5 19.8,-16.6 19.8,-29.6 V 448 h 160 c 88.4,0 160,-71.6 160,-160 z" fill="currentColor"/>
</svg>
